<?xml version="1.0" standalone="no"?>
<!DOCTYPE svg PUBLIC "-//W3C//DTD SVG 20010904//EN"
 "http://www.w3.org/TR/2001/REC-SVG-20010904/DTD/svg10.dtd">
<svg version="1.0" xmlns="http://www.w3.org/2000/svg"
 width="250.000000pt" height="250.000000pt" viewBox="0 0 250.000000 250.000000"
 preserveAspectRatio="xMidYMid meet">
<metadata>
Created by potrace 1.14, written by Peter Selinger 2001-2017
</metadata>
<g transform="translate(0.000000,250.000000) scale(0.100000,-0.100000)"
fill="#000000" stroke="none">
<path d="M290 1265 l0 -465 460 0 460 0 0 465 0 465 -460 0 -460 0 0 -465z
m533 279 l77 -7 0 -60 0 -60 -23 34 c-27 41 -60 59 -107 59 -41 0 -96 -30
-104 -58 -13 -41 12 -70 129 -146 138 -91 158 -116 152 -199 -4 -68 -25 -102
-88 -137 -37 -21 -57 -25 -129 -25 -63 0 -97 5 -128 19 -49 22 -59 46 -46 108
10 44 34 64 34 28 0 -66 65 -120 147 -120 84 0 133 56 107 125 -4 8 -60 52
-126 96 -150 102 -173 139 -148 231 18 64 84 114 156 117 12 1 55 -2 97 -5z"/>
<path d="M1282 1268 l3 -463 458 -3 457 -2 0 465 0 465 -460 0 -460 0 2 -462z
m662 256 l56 -18 -1 -75 c0 -61 -2 -71 -10 -51 -44 110 -170 160 -275 109
-104 -50 -150 -200 -108 -350 29 -104 96 -159 195 -159 102 0 180 65 196 165
8 48 19 33 27 -37 6 -57 6 -58 -32 -96 -81 -81 -244 -95 -375 -33 -112 54
-160 133 -160 266 0 88 19 145 67 202 31 37 112 79 176 93 62 13 177 5 244
-16z"/>
</g>
</svg>
